<svg xmlns="http://www.w3.org/2000/svg" clip-rule="evenodd" fill-rule="evenodd" image-rendering="optimizeQuality" shape-rendering="geometricPrecision" text-rendering="geometricPrecision" viewBox="0 0 829.91 1031.66" style="fill: rgb(0, 0, 0);" original_string_length="4465"><g><g id="__id140_slsqj9l2md"><path d="M332 541.53L414.96 380.77 414.96 623.8z" style="fill: rgb(124, 137, 139);"/></g><g id="__id141_slsqj9l2md"><path d="M497.92 541.53L414.95 380.77 414.95 623.8z" style="fill: rgb(255, 255, 255);"/></g><g id="__id142_slsqj9l2md"><path d="M497.92 706.07L414.95 866.82 414.95 623.8z" style="fill: rgb(124, 137, 139);"/></g><g id="__id143_slsqj9l2md"><path d="M332 706.07L414.96 866.82 414.96 623.8z" style="fill: rgb(255, 255, 255);"/></g><g id="__id144_slsqj9l2md"><path d="M497.23 540.84L658 623.81 414.96 623.81z" style="fill: rgb(124, 137, 139);"/></g><g id="__id145_slsqj9l2md"><path d="M497.23 706.75L658 623.79 414.96 623.79z" style="fill: rgb(255, 255, 255);"/></g><g id="__id146_slsqj9l2md"><path d="M332.69 706.75L171.93 623.79 414.96 623.79z" style="fill: rgb(124, 137, 139);"/></g><g id="__id147_slsqj9l2md"><path d="M332.69 540.84L171.93 623.81 414.96 623.81z" style="fill: rgb(255, 255, 255);"/></g><g id="__id148_slsqj9l2md"><path d="M615.66 423.35L616.5 422.5 615.95 422.79 616.24 422.25 615.39 423.08 497.92 485.38 525.51 512.98 525.76 513.23 553.36 540.84z" style="fill: rgb(124, 137, 139);"/></g><g id="__id149_slsqj9l2md"><path d="M207.28 824.24L206.44 825.09 207 824.8 206.7 825.35 207.54 824.51 325.03 762.21 297.43 734.62 297.17 734.36 269.57 706.75z" style="fill: rgb(124, 137, 139);"/></g><g id="__id150_slsqj9l2md"><path d="M611.92 827.99L612.76 828.82 612.47 828.27 613.02 828.57 612.18 827.72 549.88 710.24 522.29 737.84 522.03 738.09 494.43 765.7z" style="fill: rgb(124, 137, 139);"/></g><g id="__id151_slsqj9l2md"><path d="M211.02 419.6L210.18 418.77 210.47 419.32 209.92 419.03 210.76 419.87 273.06 537.35 300.65 509.75 300.91 509.5 328.5 481.89z" style="fill: rgb(124, 137, 139);"/></g><g id="__id152_slsqj9l2md"><path d="M533.21 962.46c-29.25,10.25 -59.32,16.31 -89.46,18.54l-30.08 -47.48 -29.71 46.93c-100.82,-9.31 -196.89,-60.41 -259.89,-142.85 -43.64,-57.11 -67.35,-124.32 -72.05,-192.81l44.64 -28.27 -44.23 -28.02c5.16,-62.28 25.84,-123.65 61.55,-177.47 61.63,-92.9 163.91,-147.31 271.35,-156.28l28.35 44.75 28.64 -45.23c24.84,1.67 49.62,5.76 73.92,12.44 145.97,40.14 247.76,172.43 261.84,319.8l-47.39 30.01 47.55 30.11c-12.93,143.22 -107.27,267.5 -245.01,315.83zm-194.16 -832.78c0,-41.92 33.99,-75.92 75.92,-75.92 41.92,0 75.91,34 75.91,75.92 0,35.26 -24.05,64.91 -56.64,73.44l1.25 0.05c-13.55,-0.57 -27.12,-0.49 -40.67,0.25l1.69 -0.09c-33.01,-8.25 -57.46,-38.1 -57.46,-73.65zm96.53 73.5c2.22,0.09 4.44,0.21 6.66,0.33 -2.22,-0.13 -4.44,-0.24 -6.66,-0.33zm6.9 0.35c2.23,0.13 4.45,0.28 6.68,0.45l-6.68 -0.45zm6.76 0.45c2.2,0.17 4.4,0.35 6.6,0.55 -2.2,-0.2 -4.39,-0.38 -6.6,-0.55zm6.86 0.57c2.17,0.2 4.33,0.41 6.49,0.64 -2.16,-0.23 -4.33,-0.44 -6.49,-0.64zm6.85 0.68c2.18,0.24 4.36,0.49 6.53,0.76 -2.18,-0.27 -4.35,-0.52 -6.53,-0.76zm6.6 0.77c2.23,0.27 4.46,0.57 6.68,0.89 -2.22,-0.32 -4.45,-0.61 -6.68,-0.89zm6.76 0.9c2.17,0.3 4.33,0.63 6.49,0.97 -2.16,-0.34 -4.33,-0.66 -6.49,-0.97zm6.82 1.02c2.13,0.34 4.26,0.69 6.39,1.06 -2.13,-0.37 -4.26,-0.73 -6.39,-1.06zm6.83 1.14c2.14,0.38 4.28,0.77 6.41,1.18 -2.14,-0.41 -4.27,-0.81 -6.41,-1.18zm6.57 1.21c2.16,0.42 4.32,0.85 6.48,1.3 -2.16,-0.45 -4.32,-0.88 -6.48,-1.3zm6.79 1.37c2.11,0.44 4.22,0.91 6.32,1.38 -2.1,-0.48 -4.21,-0.94 -6.32,-1.38zm6.69 1.47l3.52 0.82c19.39,-22.66 31.1,-52.09 31.1,-84.25 0,-71.61 -58.07,-129.68 -129.68,-129.68 -71.61,0 -129.68,58.07 -129.68,129.68 0,32.57 12.01,62.33 31.84,85.11l2.98 -0.71c-39.93,9.32 -78.65,24.35 -114.57,44.86 -127.54,72.82 -203.8,213.01 -205.51,358.29 -1.72,146.81 81.05,283.5 205.51,358.3 127.61,76.67 290.96,73 418.87,0 127.54,-72.81 203.8,-213.02 205.51,-358.3 -1.73,-147.78 -78.83,-282.17 -205.51,-358.29 -35.83,-21.53 -74.48,-36.72 -114.37,-45.82zm-189.59 0.89c2.14,-0.5 4.28,-0.98 6.43,-1.44 -2.15,0.47 -4.29,0.95 -6.43,1.44zm6.62 -1.49c2.13,-0.46 4.26,-0.9 6.4,-1.33 -2.13,0.43 -4.27,0.87 -6.4,1.33zm6.78 -1.41c2.14,-0.43 4.29,-0.84 6.44,-1.23 -2.15,0.39 -4.29,0.8 -6.44,1.23zm6.64 -1.27c2.19,-0.4 4.39,-0.79 6.58,-1.16 -2.2,0.37 -4.39,0.75 -6.58,1.16zm6.7 -1.17c2.22,-0.37 4.44,-0.72 6.67,-1.06 -2.23,0.34 -4.45,0.69 -6.67,1.06zm6.71 -1.06c4.43,-0.67 8.86,-1.27 13.3,-1.79 -4.44,0.53 -8.88,1.13 -13.3,1.79zm13.67 -1.84c2.15,-0.25 4.3,-0.49 6.46,-0.71 -2.15,0.22 -4.31,0.46 -6.46,0.71zm6.7 -0.74c2.17,-0.22 4.34,-0.43 6.51,-0.61 -2.17,0.19 -4.34,0.39 -6.51,0.61zm7.04 -0.66c2.15,-0.18 4.31,-0.35 6.46,-0.51 -2.15,0.15 -4.31,0.32 -6.46,0.51zm6.54 -0.51c2.19,-0.15 4.39,-0.29 6.58,-0.41 -2.19,0.12 -4.39,0.26 -6.58,0.41z" style="fill: rgb(255, 255, 255);"/></g></g></svg>